<?xml version="1.0" standalone="no"?>
<!DOCTYPE svg PUBLIC "-//W3C//DTD SVG 20010904//EN"
 "http://www.w3.org/TR/2001/REC-SVG-20010904/DTD/svg10.dtd">
<svg version="1.0" xmlns="http://www.w3.org/2000/svg"
 width="296.000000pt" height="296.000000pt" viewBox="0 0 296.000000 296.000000"
 preserveAspectRatio="xMidYMid meet">
<metadata>
Created by potrace 1.14, written by Peter Selinger 2001-2017
</metadata>
<g transform="translate(0.000000,296.000000) scale(0.100000,-0.100000)"
fill="#000000" stroke="none">
<path d="M0 1480 l0 -1440 1480 0 1480 0 0 1440 0 1440 -1480 0 -1480 0 0
-1440z m1110 512 c272 -239 504 -443 515 -453 19 -19 7 -19 -508 -19 l-527 0
0 461 c0 365 3 459 13 453 6 -5 235 -204 507 -442z m1210 -487 l0 -935 -265 0
-265 0 0 935 0 935 265 0 265 0 0 -935z m-1234 -450 c262 -231 493 -434 513
-452 l36 -32 -522 -1 -523 0 0 456 c0 267 4 454 9 452 5 -1 224 -192 487 -423z"/>
</g>
</svg>
